<mxfile host="app.diagrams.net" agent="Mozilla/5.0 (Windows NT 10.0; Win64; x64) AppleWebKit/537.36 (KHTML, like Gecko) Chrome/134.0.0.0 Safari/537.36" version="26.1.3">
  <diagram name="Page-1" id="mZfDu2OdAP6P9Ze1jKG5">
    <mxGraphModel dx="1434" dy="786" grid="1" gridSize="10" guides="1" tooltips="1" connect="1" arrows="1" fold="1" page="1" pageScale="1" pageWidth="1100" pageHeight="850" background="#ffffff" math="0" shadow="1">
      <root>
        <mxCell id="0" />
        <mxCell id="1" parent="0" />
        <mxCell id="j93ZyQIM0atcmIjquwag-22" value="" style="edgeStyle=orthogonalEdgeStyle;rounded=0;orthogonalLoop=1;jettySize=auto;html=1;" edge="1" parent="1" source="j93ZyQIM0atcmIjquwag-2" target="j93ZyQIM0atcmIjquwag-6">
          <mxGeometry relative="1" as="geometry" />
        </mxCell>
        <mxCell id="j93ZyQIM0atcmIjquwag-2" value="System starts" style="strokeWidth=2;html=1;shape=mxgraph.flowchart.start_1;whiteSpace=wrap;fillColor=#dae8fc;strokeColor=#6c8ebf;" vertex="1" parent="1">
          <mxGeometry x="370" y="20" width="120" height="60" as="geometry" />
        </mxCell>
        <mxCell id="j93ZyQIM0atcmIjquwag-23" value="" style="edgeStyle=orthogonalEdgeStyle;rounded=0;orthogonalLoop=1;jettySize=auto;html=1;" edge="1" parent="1" source="j93ZyQIM0atcmIjquwag-6" target="j93ZyQIM0atcmIjquwag-9">
          <mxGeometry relative="1" as="geometry" />
        </mxCell>
        <mxCell id="j93ZyQIM0atcmIjquwag-6" value="Monitoring Starts in background" style="rounded=1;whiteSpace=wrap;html=1;absoluteArcSize=1;arcSize=14;strokeWidth=2;fillColor=#ffe6cc;strokeColor=#d79b00;" vertex="1" parent="1">
          <mxGeometry x="370" y="130" width="130" height="70" as="geometry" />
        </mxCell>
        <mxCell id="j93ZyQIM0atcmIjquwag-24" value="" style="edgeStyle=orthogonalEdgeStyle;rounded=0;orthogonalLoop=1;jettySize=auto;html=1;" edge="1" parent="1" source="j93ZyQIM0atcmIjquwag-9" target="j93ZyQIM0atcmIjquwag-11">
          <mxGeometry relative="1" as="geometry" />
        </mxCell>
        <mxCell id="j93ZyQIM0atcmIjquwag-9" value="Login Page {User logs crediatials}" style="rounded=1;whiteSpace=wrap;html=1;absoluteArcSize=1;arcSize=14;strokeWidth=2;fillColor=#ffe6cc;strokeColor=#d79b00;" vertex="1" parent="1">
          <mxGeometry x="360" y="250" width="140" height="70" as="geometry" />
        </mxCell>
        <mxCell id="j93ZyQIM0atcmIjquwag-25" value="" style="edgeStyle=orthogonalEdgeStyle;rounded=0;orthogonalLoop=1;jettySize=auto;html=1;" edge="1" parent="1" source="j93ZyQIM0atcmIjquwag-11" target="j93ZyQIM0atcmIjquwag-19">
          <mxGeometry relative="1" as="geometry" />
        </mxCell>
        <mxCell id="j93ZyQIM0atcmIjquwag-28" value="" style="edgeStyle=orthogonalEdgeStyle;rounded=0;orthogonalLoop=1;jettySize=auto;html=1;" edge="1" parent="1" source="j93ZyQIM0atcmIjquwag-11" target="j93ZyQIM0atcmIjquwag-27">
          <mxGeometry relative="1" as="geometry" />
        </mxCell>
        <mxCell id="j93ZyQIM0atcmIjquwag-11" value="True Credentials&lt;div&gt;?&lt;/div&gt;" style="strokeWidth=2;html=1;shape=mxgraph.flowchart.decision;whiteSpace=wrap;fillColor=#d5e8d4;strokeColor=#82b366;" vertex="1" parent="1">
          <mxGeometry x="360" y="370" width="130" height="80" as="geometry" />
        </mxCell>
        <mxCell id="j93ZyQIM0atcmIjquwag-13" value="Yes" style="text;html=1;align=center;verticalAlign=middle;resizable=0;points=[];autosize=1;strokeColor=none;fillColor=none;" vertex="1" parent="1">
          <mxGeometry x="420" y="450" width="40" height="30" as="geometry" />
        </mxCell>
        <mxCell id="j93ZyQIM0atcmIjquwag-21" value="" style="edgeStyle=orthogonalEdgeStyle;rounded=0;orthogonalLoop=1;jettySize=auto;html=1;" edge="1" parent="1" source="j93ZyQIM0atcmIjquwag-19" target="j93ZyQIM0atcmIjquwag-20">
          <mxGeometry relative="1" as="geometry" />
        </mxCell>
        <mxCell id="j93ZyQIM0atcmIjquwag-19" value="System opens and displays dashboard {Live charts, Starts packet capture}" style="rounded=1;whiteSpace=wrap;html=1;absoluteArcSize=1;arcSize=14;strokeWidth=2;fillColor=#ffe6cc;strokeColor=#d79b00;" vertex="1" parent="1">
          <mxGeometry x="380" y="500" width="150" height="70" as="geometry" />
        </mxCell>
        <mxCell id="j93ZyQIM0atcmIjquwag-31" value="" style="edgeStyle=orthogonalEdgeStyle;rounded=0;orthogonalLoop=1;jettySize=auto;html=1;" edge="1" parent="1" source="j93ZyQIM0atcmIjquwag-20" target="j93ZyQIM0atcmIjquwag-30">
          <mxGeometry relative="1" as="geometry" />
        </mxCell>
        <mxCell id="j93ZyQIM0atcmIjquwag-20" value="Pause/Resume monitoring button {dashboard}" style="rounded=1;whiteSpace=wrap;html=1;fillColor=#ffe6cc;strokeColor=#d79b00;arcSize=14;strokeWidth=2;" vertex="1" parent="1">
          <mxGeometry x="580" y="500" width="120" height="60" as="geometry" />
        </mxCell>
        <mxCell id="j93ZyQIM0atcmIjquwag-27" value="User doesn&#39;t exist&lt;div&gt;{Try again}&lt;/div&gt;" style="shape=parallelogram;perimeter=parallelogramPerimeter;whiteSpace=wrap;html=1;fixedSize=1;fillColor=#e1d5e7;strokeColor=#9673a6;strokeWidth=2;" vertex="1" parent="1">
          <mxGeometry x="150" y="400" width="120" height="60" as="geometry" />
        </mxCell>
        <mxCell id="j93ZyQIM0atcmIjquwag-29" value="No" style="text;html=1;align=center;verticalAlign=middle;resizable=0;points=[];autosize=1;strokeColor=none;fillColor=none;" vertex="1" parent="1">
          <mxGeometry x="330" y="408" width="40" height="30" as="geometry" />
        </mxCell>
        <mxCell id="j93ZyQIM0atcmIjquwag-33" value="" style="edgeStyle=orthogonalEdgeStyle;rounded=0;orthogonalLoop=1;jettySize=auto;html=1;" edge="1" parent="1" source="j93ZyQIM0atcmIjquwag-30" target="j93ZyQIM0atcmIjquwag-32">
          <mxGeometry relative="1" as="geometry" />
        </mxCell>
        <mxCell id="j93ZyQIM0atcmIjquwag-36" value="" style="edgeStyle=orthogonalEdgeStyle;rounded=0;orthogonalLoop=1;jettySize=auto;html=1;" edge="1" parent="1" source="j93ZyQIM0atcmIjquwag-30" target="j93ZyQIM0atcmIjquwag-35">
          <mxGeometry relative="1" as="geometry" />
        </mxCell>
        <mxCell id="j93ZyQIM0atcmIjquwag-38" value="" style="edgeStyle=orthogonalEdgeStyle;rounded=0;orthogonalLoop=1;jettySize=auto;html=1;" edge="1" parent="1" source="j93ZyQIM0atcmIjquwag-30" target="j93ZyQIM0atcmIjquwag-35">
          <mxGeometry relative="1" as="geometry" />
        </mxCell>
        <mxCell id="j93ZyQIM0atcmIjquwag-30" value="Pause&lt;div&gt;?&lt;/div&gt;" style="rhombus;whiteSpace=wrap;html=1;fillColor=#d5e8d4;strokeColor=#82b366;rounded=1;arcSize=14;strokeWidth=2;" vertex="1" parent="1">
          <mxGeometry x="600" y="390" width="80" height="80" as="geometry" />
        </mxCell>
        <mxCell id="j93ZyQIM0atcmIjquwag-32" value="Monitoring Stops" style="whiteSpace=wrap;html=1;fillColor=#ffe6cc;strokeColor=#d79b00;rounded=1;arcSize=14;strokeWidth=2;" vertex="1" parent="1">
          <mxGeometry x="590" y="300" width="120" height="60" as="geometry" />
        </mxCell>
        <mxCell id="j93ZyQIM0atcmIjquwag-34" value="Yes" style="text;html=1;align=center;verticalAlign=middle;resizable=0;points=[];autosize=1;strokeColor=none;fillColor=none;" vertex="1" parent="1">
          <mxGeometry x="640" y="368" width="40" height="30" as="geometry" />
        </mxCell>
        <mxCell id="j93ZyQIM0atcmIjquwag-41" value="" style="edgeStyle=orthogonalEdgeStyle;rounded=0;orthogonalLoop=1;jettySize=auto;html=1;" edge="1" parent="1" source="j93ZyQIM0atcmIjquwag-35" target="j93ZyQIM0atcmIjquwag-40">
          <mxGeometry relative="1" as="geometry" />
        </mxCell>
        <mxCell id="j93ZyQIM0atcmIjquwag-52" value="" style="edgeStyle=orthogonalEdgeStyle;rounded=0;orthogonalLoop=1;jettySize=auto;html=1;" edge="1" parent="1" source="j93ZyQIM0atcmIjquwag-35" target="j93ZyQIM0atcmIjquwag-51">
          <mxGeometry relative="1" as="geometry" />
        </mxCell>
        <mxCell id="j93ZyQIM0atcmIjquwag-35" value="Resumes Monitoring&lt;div&gt;{Packet capture}&lt;/div&gt;" style="whiteSpace=wrap;html=1;fillColor=#ffe6cc;strokeColor=#d79b00;rounded=1;arcSize=14;strokeWidth=2;" vertex="1" parent="1">
          <mxGeometry x="740" y="400" width="120" height="60" as="geometry" />
        </mxCell>
        <mxCell id="j93ZyQIM0atcmIjquwag-39" value="No" style="text;html=1;align=center;verticalAlign=middle;resizable=0;points=[];autosize=1;strokeColor=none;fillColor=none;" vertex="1" parent="1">
          <mxGeometry x="690" y="428" width="40" height="30" as="geometry" />
        </mxCell>
        <mxCell id="j93ZyQIM0atcmIjquwag-48" value="" style="edgeStyle=orthogonalEdgeStyle;rounded=0;orthogonalLoop=1;jettySize=auto;html=1;" edge="1" parent="1" source="j93ZyQIM0atcmIjquwag-40" target="j93ZyQIM0atcmIjquwag-46">
          <mxGeometry relative="1" as="geometry" />
        </mxCell>
        <mxCell id="j93ZyQIM0atcmIjquwag-50" value="" style="edgeStyle=orthogonalEdgeStyle;rounded=0;orthogonalLoop=1;jettySize=auto;html=1;" edge="1" parent="1" source="j93ZyQIM0atcmIjquwag-40" target="j93ZyQIM0atcmIjquwag-49">
          <mxGeometry relative="1" as="geometry" />
        </mxCell>
        <mxCell id="j93ZyQIM0atcmIjquwag-40" value="Packets and Alerts logged into db" style="strokeWidth=2;html=1;shape=mxgraph.flowchart.database;whiteSpace=wrap;fillColor=#cdeb8b;strokeColor=#36393d;" vertex="1" parent="1">
          <mxGeometry x="520" y="610" width="60" height="60" as="geometry" />
        </mxCell>
        <mxCell id="j93ZyQIM0atcmIjquwag-46" value="Packet Window {Displays packets on a&amp;nbsp;&lt;div&gt;table as they get captured with filters,visuallizes&amp;nbsp;&lt;/div&gt;&lt;div&gt;data in graph, pop up table with top 5 ips,&amp;nbsp;&lt;/div&gt;&lt;div&gt;exports packets and graph&lt;/div&gt;" style="shape=parallelogram;perimeter=parallelogramPerimeter;whiteSpace=wrap;html=1;fixedSize=1;fillColor=#e1d5e7;strokeColor=#9673a6;" vertex="1" parent="1">
          <mxGeometry x="140" y="600" width="290" height="80" as="geometry" />
        </mxCell>
        <mxCell id="j93ZyQIM0atcmIjquwag-49" value="Alerts Window&amp;nbsp;&lt;span style=&quot;background-color: transparent; color: light-dark(rgb(0, 0, 0), rgb(255, 255, 255));&quot;&gt;{Displays Alerts&amp;nbsp;&lt;/span&gt;&lt;div&gt;table, with filters (severity),Graphs,&lt;/div&gt;&lt;div&gt;Export data (graphs as png, Alerts&lt;/div&gt;&lt;div&gt;in csv file)&lt;/div&gt;" style="shape=parallelogram;perimeter=parallelogramPerimeter;whiteSpace=wrap;html=1;fixedSize=1;fillColor=#e1d5e7;strokeColor=#9673a6;strokeWidth=2;" vertex="1" parent="1">
          <mxGeometry x="640" y="600" width="280" height="80" as="geometry" />
        </mxCell>
        <mxCell id="j93ZyQIM0atcmIjquwag-54" value="" style="edgeStyle=orthogonalEdgeStyle;rounded=0;orthogonalLoop=1;jettySize=auto;html=1;" edge="1" parent="1" source="j93ZyQIM0atcmIjquwag-51" target="j93ZyQIM0atcmIjquwag-53">
          <mxGeometry relative="1" as="geometry" />
        </mxCell>
        <mxCell id="j93ZyQIM0atcmIjquwag-51" value="packets&amp;nbsp;&lt;div&gt;above 1000&lt;/div&gt;&lt;div&gt;?&lt;/div&gt;" style="rhombus;whiteSpace=wrap;html=1;fillColor=#d5e8d4;strokeColor=#82b366;rounded=1;arcSize=14;strokeWidth=2;" vertex="1" parent="1">
          <mxGeometry x="930" y="398" width="80" height="80" as="geometry" />
        </mxCell>
        <mxCell id="j93ZyQIM0atcmIjquwag-61" value="" style="edgeStyle=orthogonalEdgeStyle;rounded=0;orthogonalLoop=1;jettySize=auto;html=1;" edge="1" parent="1" source="j93ZyQIM0atcmIjquwag-53" target="j93ZyQIM0atcmIjquwag-49">
          <mxGeometry relative="1" as="geometry" />
        </mxCell>
        <mxCell id="j93ZyQIM0atcmIjquwag-53" value="Captures packets rate, logs and displays alerts" style="whiteSpace=wrap;html=1;fillColor=#ffe6cc;strokeColor=#d79b00;rounded=1;arcSize=14;strokeWidth=2;" vertex="1" parent="1">
          <mxGeometry x="810" y="510" width="120" height="60" as="geometry" />
        </mxCell>
        <mxCell id="j93ZyQIM0atcmIjquwag-55" value="yes" style="text;html=1;align=center;verticalAlign=middle;resizable=0;points=[];autosize=1;strokeColor=none;fillColor=none;" vertex="1" parent="1">
          <mxGeometry x="960" y="468" width="40" height="30" as="geometry" />
        </mxCell>
      </root>
    </mxGraphModel>
  </diagram>
</mxfile>
